. 
 
http://www.torrenting.com          :     Once & For all ;)


               www . Torrenting . Com 

(((((((((((((= Enjoy No RAR releases =))))))))))))))))))))


...................................NFO:....................................

.ooooo oooo   oooo oooooooo8 oooooooooo  o88   oooooooooo       o      ooooo       
 888   8888o  88 888         888    888 oooo   888    888     888      888        
 888   88 888o88  888oooooo  888oooo88   888   888oooo88     8  88     888        
 888   88   8888         888 888         888   888  88o     8oooo88    888      o 
o888o o88o    88 o88oooo888 o888o       o888o o888o  88o8 o88o  o888o o888ooooo88 

 
TITLE: 

Tinker Tailor Soldier Spy 2011 R5 AC3 XViD - INSPiRAL

IMDB: 

www.imdb.com/title/tt1625346/


SOURCES:

VIDEO - Tinker Tailor Soldier Spy (2011) DVDR5 - Lum1x THANKS
AUDIO - Tinker Tailor Soldier Spy (2011) DVDR5 - Lum1x THANKS
SUBS  - None Add

STATS:

Video
ID                               : 0
Format                           : MPEG-4 Visual
Format profile                   : Advanced Simple@L5
Format settings, BVOP            : 2
Format settings, QPel            : No
Format settings, GMC             : No warppoints
Format settings, Matrix          : Default (MPEG)
Muxing mode                      : Packed bitstream
Codec ID                         : XVID
Codec ID/Hint                    : XviD
Duration                         : 2h 2mn
Bit rate                         : 1 997 Kbps
Width                            : 720 pixels
Height                           : 304 pixels
Display aspect ratio             : 2.35:1
Frame rate                       : 25.000 fps
Color space                      : YUV
Chroma subsampling               : 4:2:0
Bit depth                        : 8 bits
Scan type                        : Progressive
Compression mode                 : Lossy
Bits/(Pixel*Frame)               : 0.365
Stream size                      : 1.70 GiB (83%)
Writing library                  : XviD 64

Audio
ID                               : 1
Format                           : AC-3
Format/Info                      : Audio Coding 3
Mode extension                   : CM (complete main)
Codec ID                         : 2000
Duration                         : 2h 2mn
Bit rate mode                    : Constant
Bit rate                         : 384 Kbps
Channel(s)                       : 6 channels
Channel positions                : Front: L C R, Side: L R, LFE
Sampling rate                    : 48.0 KHz
Bit depth                        : 16 bits
Compression mode                 : Lossy
Stream size                      : 335 MiB (16%)
Alignment                        : Aligned on interleaves
Interleave, duration             : 40 ms (1.00 video frame)
Interleave, preload duration     : 512 ms




NOTES:

This is a pretty simple rip of the russian R5 DVD9 thats out ....
The dvd for a f5 was poor IMHO,lots of noise,looked washed out etc...still good,but there has been alot better
r5's released.
Anyway stripped all other langs except english....used a heavy noise filter,changed the brightness and contrast,slight
increase in the chroma and finally add some sharpness back.
Like i said not the best R5 to be ever released but will do until the retail comes out in 3 weeks time.
Oh also opted for a higher file size due to wanting to keep the audio untouched whilst also keeping a nice bitrate on
the video,specially being over 2hrs long.


SCREENS:

[IMG]http://i.imgur.com/QhdfG.png[/IMG]
[IMG]http://i.imgur.com/27i0Z.png[/IMG]
[IMG]http://i.imgur.com/770Cf.png[/IMG]
[IMG]http://i.imgur.com/U8erR.png[/IMG]
[IMG]http://i.imgur.com/iYMSw.png[/IMG]

GREETZ: 

Past,Present and Future